<?xml version="1.0" standalone="no"?>
<!DOCTYPE svg PUBLIC "-//W3C//DTD SVG 20010904//EN"
 "http://www.w3.org/TR/2001/REC-SVG-20010904/DTD/svg10.dtd">
<svg version="1.0" xmlns="http://www.w3.org/2000/svg"
 width="800.000000pt" height="800.000000pt" viewBox="0 0 800.000000 800.000000"
 preserveAspectRatio="xMidYMid meet">
<metadata>
Created by potrace 1.14, written by Peter Selinger 2001-2017
</metadata>
<g transform="translate(0.000000,800.000000) scale(0.100000,-0.100000)"
fill="#000000" stroke="none">
<path d="M1303 5664 c3 -3 1 -19 -5 -35 -8 -23 -16 -29 -41 -30 -18 -1 -57 -2
-87 -4 -527 -25 -827 -25 -892 0 -22 9 -23 -14 -4 -78 27 -91 83 -139 182
-153 61 -10 269 -10 391 0 94 7 106 8 278 31 54 8 100 13 102 12 5 -6 -109
-254 -178 -387 -75 -144 -153 -276 -474 -800 -176 -289 -182 -297 -318 -506
-155 -237 -195 -337 -194 -479 1 -138 34 -221 111 -277 37 -26 41 -28 44 -11
26 145 361 807 581 1146 176 273 323 525 482 832 116 224 160 338 166 435 3
41 7 77 10 79 7 8 485 6 574 -2 77 -7 195 -33 242 -52 16 -7 17 -2 12 56 -11
118 -54 179 -143 205 -43 13 -84 15 -205 10 -84 -3 -161 -8 -172 -10 -11 -2
-56 -7 -100 -10 -44 -4 -91 -9 -105 -11 -108 -16 -147 -16 -160 0 -14 17 -48
33 -84 41 -10 2 -16 1 -13 -2z"/>
<path d="M4115 5305 c-199 -46 -370 -210 -569 -550 -33 -55 -61 -102 -63 -105
-2 -2 -50 -5 -106 -6 -138 -2 -133 -1 -161 -26 -46 -40 -23 -51 107 -52 118
-1 124 -4 96 -41 -10 -14 -222 -438 -249 -500 -38 -87 -48 -108 -84 -194 -45
-106 -85 -155 -336 -412 -142 -145 -280 -246 -375 -275 -42 -12 -47 -12 -65 6
-28 28 -25 70 11 174 41 120 125 295 247 512 55 100 104 192 107 205 3 13 0
32 -7 41 -27 37 -171 40 -238 6 -30 -16 -66 -57 -99 -112 -23 -39 -146 -191
-276 -340 -106 -122 -318 -336 -392 -397 -128 -102 -248 -157 -301 -138 -42
16 -56 82 -37 174 30 145 234 502 421 735 97 120 303 323 409 403 220 165 375
197 478 99 16 -15 44 -57 62 -93 19 -37 41 -69 50 -73 68 -26 111 45 72 120
-32 62 -138 139 -247 179 -64 24 -91 28 -185 29 -76 0 -130 -5 -175 -17 -92
-25 -248 -105 -360 -184 -97 -70 -307 -269 -376 -358 -21 -27 -42 -53 -47 -56
-4 -3 -41 -52 -82 -110 -79 -111 -191 -324 -231 -442 -30 -88 -53 -229 -47
-294 5 -55 40 -137 73 -172 81 -84 291 -92 439 -16 156 79 366 295 524 539 21
32 40 56 43 54 2 -3 -5 -27 -16 -54 -37 -93 -72 -255 -72 -344 -2 -178 85
-265 240 -240 156 26 310 142 550 415 142 162 136 157 127 120 -4 -16 -8 -37
-10 -45 -2 -8 -9 -37 -15 -65 -17 -73 -15 -202 4 -268 13 -43 26 -64 62 -96
55 -48 103 -63 199 -63 138 0 267 51 382 151 88 76 264 255 347 354 36 43 66
77 66 75 0 -2 -11 -51 -24 -110 -38 -166 -29 -304 24 -377 78 -111 290 -125
478 -34 103 51 270 205 479 443 l31 34 -4 -102 c-12 -339 175 -507 490 -442
95 20 271 114 368 197 198 169 389 404 478 588 42 86 94 236 104 300 15 90 15
241 1 300 -19 81 -71 179 -114 217 -34 30 -98 63 -144 75 -43 11 -173 12 -217
2 -25 -6 -56 -13 -70 -15 -49 -9 -207 -96 -294 -161 -112 -84 -239 -214 -321
-328 -70 -98 -166 -277 -211 -394 -24 -64 -43 -89 -144 -200 -272 -294 -431
-411 -566 -412 -162 -2 -187 177 -67 481 55 138 255 548 350 715 38 66 81 145
97 175 l29 55 277 0 c287 0 320 5 335 43 13 34 -13 37 -285 37 -149 0 -270 1
-270 3 0 37 316 520 403 617 20 22 37 43 37 48 0 13 -120 -3 -178 -25 -114
-42 -221 -127 -331 -263 -50 -61 -112 -155 -217 -330 l-30 -50 -345 0 c-189
-1 -349 1 -356 3 -11 4 -3 22 44 97 7 11 20 34 29 50 55 99 253 389 327 478
l40 48 -40 -2 c-21 -2 -61 -8 -88 -14z m345 -742 c0 -2 -56 -114 -124 -250
-68 -137 -152 -313 -186 -393 -65 -152 -87 -185 -223 -335 -345 -378 -547
-505 -679 -427 -91 54 -78 264 33 509 10 24 19 45 19 47 0 16 229 470 313 621
55 99 106 191 113 205 l13 25 361 0 c198 0 360 -1 360 -2z m1752 -79 c63 -32
91 -103 90 -229 -1 -337 -268 -832 -587 -1089 -73 -59 -124 -86 -190 -101
-268 -62 -325 190 -144 630 103 250 231 455 374 600 177 179 341 247 457 189z"/>
<path d="M7460 4649 c-19 -5 -48 -11 -65 -14 -16 -3 -70 -26 -120 -51 -369
-187 -673 -594 -766 -1029 -17 -78 -20 -243 -5 -305 48 -205 179 -304 386
-293 182 10 375 118 586 328 161 161 313 364 366 490 54 131 69 179 93 290 14
60 13 233 -1 291 -18 79 -70 178 -113 216 -62 55 -135 80 -236 83 -49 2 -106
-1 -125 -6z m237 -160 c178 -58 127 -479 -106 -878 -125 -213 -341 -445 -482
-517 -62 -31 -155 -46 -207 -32 -85 21 -126 94 -124 223 2 149 56 323 178 570
147 298 330 515 511 605 96 47 153 55 230 29z"/>
</g>
</svg>
